# This file uses centimeters as units for non-parametric coordinates.

mtllib box.mtl
g default
v -100.000000 -100.191444 100.000000
v 100.000000 -100.191444 100.000000
v -100.000000 99.808556 100.000000
v 100.000000 99.808556 100.000000
v -100.000000 99.808556 -100.000000
v 100.000000 99.808556 -100.000000
v -100.000000 -100.191444 -100.000000
v 100.000000 -100.191444 -100.000000
vt 0.375000 0.000000
vt 0.375000 0.250000
vt 0.625000 0.250000
vt 0.625000 0.000000
vt 0.375000 0.500000
vt 0.625000 0.500000
vt 0.375000 0.750000
vt 0.625000 0.750000
vt 0.375000 1.000000
vt 0.625000 1.000000
vt 0.875000 0.250000
vt 0.875000 0.000000
vt 0.125000 0.000000
vt 0.125000 0.250000
vn 0.000000 0.000000 -1.000000
vn 0.000000 0.000000 -1.000000
vn 0.000000 0.000000 -1.000000
vn 0.000000 0.000000 -1.000000
vn 0.000000 -1.000000 0.000000
vn 0.000000 -1.000000 0.000000
vn 0.000000 -1.000000 0.000000
vn 0.000000 -1.000000 0.000000
vn 0.000000 0.000000 1.000000
vn 0.000000 0.000000 1.000000
vn 0.000000 0.000000 1.000000
vn 0.000000 0.000000 1.000000
vn 0.000000 1.000000 0.000000
vn 0.000000 1.000000 0.000000
vn 0.000000 1.000000 0.000000
vn 0.000000 1.000000 0.000000
vn -1.000000 0.000000 0.000000
vn -1.000000 0.000000 0.000000
vn -1.000000 0.000000 0.000000
vn -1.000000 0.000000 0.000000
vn 1.000000 0.000000 0.000000
vn 1.000000 0.000000 0.000000
vn 1.000000 0.000000 0.000000
vn 1.000000 0.000000 0.000000
s 1
g pCube1
usemtl lambert2SG
f 1/1/1 3/2/2 2/4/3
f 2/4/3 3/2/2 4/3/4
s 2
f 3/2/5 5/5/6 4/3/7
f 4/3/7 5/5/6 6/6/8
s 3
f 5/5/9 7/7/10 6/6/11
f 6/6/11 7/7/10 8/8/12
s 4
f 7/7/13 1/9/14 8/8/15
f 8/8/15 1/9/14 2/10/16
s 5
f 2/4/17 4/3/18 8/12/19
f 8/12/19 4/3/18 6/11/20
s 6
f 7/13/21 5/14/22 1/1/23
f 1/1/23 5/14/22 3/2/24
